<svg xmlns="http://www.w3.org/2000/svg" viewBox="0 0 800 560">
  <defs><linearGradient id="sky2" x2="0" y2="1"><stop stop-color="#b9e3ee"/><stop offset="1" stop-color="#f2ead6"/></linearGradient><linearGradient id="water2" x2="1" y2="1"><stop stop-color="#3bbfc1"/><stop offset="1" stop-color="#08768f"/></linearGradient></defs>
  <rect width="800" height="560" fill="url(#sky2)"/><circle cx="128" cy="108" r="58" fill="#ffd476"/><path d="M0 315c122-52 204 9 326-15s245-54 474-8v268H0Z" fill="url(#water2)"/><path d="M0 276c99-22 198-12 297 31H0Z" fill="#285a4d"/><path d="M555 279c83-52 165-47 245-19v57Z" fill="#244e43"/><path d="M160 383c163-27 318-13 470 28-112 41-358 60-470-28Z" fill="#f1d4a0"/><path d="M329 335h192l-24 70H353Z" fill="#fff8e7"/><path d="M425 282v75" stroke="#76523a" stroke-width="7"/><path d="m425 282 72 52H425Z" fill="#f15f52"/><path d="M425 282v52h-66Z" fill="#fff"/><g stroke="#fff" stroke-width="7" stroke-linecap="round" opacity=".7"><path d="M61 431c43-17 86-17 129 0"/><path d="M594 470c43-17 86-17 129 0"/></g><g fill="#26594c"><path d="m626 248 13-87 11 87Z"/><path d="m639 188-44-19 46 5Z"/><path d="m640 181 44-22-43 8Z"/></g>
</svg>
