<svg xmlns="http://www.w3.org/2000/svg" viewBox="0 0 800 560">
  <defs><linearGradient id="sky3" x2="0" y2="1"><stop stop-color="#ffc4a6"/><stop offset=".55" stop-color="#ffe7b7"/><stop offset="1" stop-color="#8dd3cf"/></linearGradient><linearGradient id="water3" x2="0" y2="1"><stop stop-color="#4abbbd"/><stop offset="1" stop-color="#066c78"/></linearGradient></defs>
  <rect width="800" height="560" fill="url(#sky3)"/><circle cx="613" cy="140" r="76" fill="#fff1a1"/><path d="M0 324c114-34 187 31 306 2 129-31 259-53 494-12v246H0Z" fill="url(#water3)"/><path d="M0 365c122 40 214-26 328 10 118 37 245 27 472-9v194H0Z" fill="#0a8290" opacity=".75"/><path d="M0 290c121-31 256-23 385 35H0Z" fill="#174f43"/><path d="m179 305 15-159 15 159Z" fill="#3d654b"/><path d="m194 168-81-30 82 9Z" fill="#246345"/><path d="m195 162 74-42-71 25Z" fill="#246345"/><path d="M480 411c39-51 103-68 170-37-38 1-62 19-72 54-36 17-69 11-98-17Z" fill="#eefdf8" opacity=".9"/><path d="M301 417c25-36 49-55 72-55s42 20 58 59c-45 23-89 22-130-4Z" fill="#ff6d5e"/><path d="M367 348c-7-17-3-33 12-46" stroke="#263e39" stroke-width="8" stroke-linecap="round"/><circle cx="383" cy="288" r="13" fill="#263e39"/>
</svg>
