<svg xmlns="http://www.w3.org/2000/svg" viewBox="0 0 800 560">
  <defs><linearGradient id="sky" x2="0" y2="1"><stop stop-color="#87d8dc"/><stop offset="1" stop-color="#dff4e8"/></linearGradient><linearGradient id="sea" x2="0" y2="1"><stop stop-color="#36b4b4"/><stop offset="1" stop-color="#087c85"/></linearGradient><linearGradient id="rock" x2="1" y2="1"><stop stop-color="#254f46"/><stop offset="1" stop-color="#112f2d"/></linearGradient></defs>
  <rect width="800" height="560" fill="url(#sky)"/><circle cx="640" cy="105" r="52" fill="#fff1a8" opacity=".9"/><path d="M0 320C150 277 253 330 384 310s246-67 416-25v275H0Z" fill="url(#sea)"/><path d="M57 354 199 121l110 233Z" fill="url(#rock)"/><path d="m132 287 67-166 38 181Z" fill="#3b7160"/><path d="M493 350 616 171l120 179Z" fill="url(#rock)"/><path d="m542 319 74-148 47 160Z" fill="#3b7160"/><path d="M286 424c91-18 185-16 276 3-54 43-199 48-276-3Z" fill="#f6dfae"/><path d="M343 397h160l-20 31H365Z" fill="#f9f2dc"/><path d="m397 379 31-58 30 58Z" fill="#fff"/><path d="M428 321v74" stroke="#6d4b35" stroke-width="6"/><g fill="#fff" opacity=".45"><circle cx="91" cy="89" r="8"/><circle cx="116" cy="89" r="8"/><circle cx="141" cy="89" r="8"/></g>
</svg>
